####
#
# OBJ File Generated by Meshlab
#
####
# Object bullet-enemy-mesh.obj
#
# Vertices: 24
# Faces: 22
#
####
mtllib ./bullet-enemy-mesh.obj.mtl

vn 0.0000000 0.0000000 1.0000000
v 0.1733200 0.3910770 -0.0000000 1.000000 0.058824 0.058824
vn 0.0000000 0.0000000 1.0000000
v -0.0762950 0.3835620 -0.0000000 1.000000 0.058824 0.058824
vn 0.0000000 0.0000000 1.0000000
v -0.1496590 0.3613080 -0.0000000 1.000000 0.058824 0.058824
vn 0.0000000 0.0000000 1.0000000
v -0.2172710 0.3251690 -0.0000000 1.000000 0.058824 0.058824
vn 0.0000000 0.0000000 1.0000000
v -0.2765330 0.2765330 -0.0000000 1.000000 0.058824 0.058824
vn 0.0000000 0.0000000 1.0000000
v -0.3251690 0.2172710 -0.0000000 1.000000 0.058824 0.058824
vn 0.0000000 0.0000000 1.0000000
v -0.3613080 0.1496590 -0.0000000 1.000000 0.058824 0.058824
vn 0.0000000 0.0000000 1.0000000
v -0.3835620 0.0762950 -0.0000000 1.000000 0.058824 0.058824
vn 0.0000000 0.0000000 1.0000000
v -0.3910770 0.0000000 0.0000000 1.000000 0.058824 0.058824
vn 0.0000000 0.0000000 1.0000000
v -0.3835620 -0.0762950 0.0000000 1.000000 0.058824 0.058824
vn 0.0000000 0.0000000 1.0000000
v -0.3613080 -0.1496590 0.0000000 1.000000 0.058824 0.058824
vn 0.0000000 0.0000000 1.0000000
v -0.3251690 -0.2172710 0.0000000 1.000000 0.058824 0.058824
vn 0.0000000 0.0000000 1.0000000
v -0.2765330 -0.2765330 0.0000000 1.000000 0.058824 0.058824
vn 0.0000000 0.0000000 1.0000000
v -0.2172710 -0.3251690 0.0000000 1.000000 0.058824 0.058824
vn 0.0000000 0.0000000 1.0000000
v -0.1496590 -0.3613080 0.0000000 1.000000 0.058824 0.058824
vn 0.0000000 0.0000000 1.0000000
v -0.0762950 -0.3835620 0.0000000 1.000000 0.058824 0.058824
vn 0.0000000 0.0000000 1.0000000
v 0.2022060 -0.3910770 0.0000000 1.000000 0.058824 0.058824
vn 0.0000000 0.0000000 1.0000000
v 0.9200880 -0.3835620 0.0000000 1.000000 0.058824 0.058824
vn 0.0000000 0.0000000 1.0000000
v 0.3251690 -0.2172710 0.0000000 1.000000 0.058824 0.058824
vn 0.0000000 0.0000000 1.0000000
v 0.3613080 -0.1496590 0.0000000 1.000000 0.058824 0.058824
vn 0.0000000 0.0000000 1.0000000
v 0.5942790 0.0000000 0.0000000 1.000000 0.058824 0.058824
vn 0.0000000 0.0000000 1.0000000
v 0.3613080 0.1496590 -0.0000000 1.000000 0.058824 0.058824
vn 0.0000000 0.0000000 1.0000000
v 0.3251690 0.2172710 -0.0000000 1.000000 0.058824 0.058824
vn 0.0000000 0.0000000 1.0000000
v 0.9185680 0.3896440 -0.0000000 1.000000 0.058824 0.058824
# 24 vertices, 0 vertices normals


usemtl material_0
vt 0.0000000 0.0000000
f 5/1/5 13/1/13 23/1/23
f 1/1/1 2/1/2 23/1/23
f 2/1/2 3/1/3 23/1/23
f 3/1/3 4/1/4 5/1/5
f 5/1/5 6/1/6 7/1/7
f 7/1/7 8/1/8 5/1/5
f 8/1/8 9/1/9 5/1/5
f 9/1/9 10/1/10 13/1/13
f 10/1/10 11/1/11 13/1/13
f 11/1/11 12/1/12 13/1/13
f 13/1/13 14/1/14 15/1/15
f 15/1/15 16/1/16 19/1/19
f 16/1/16 17/1/17 19/1/19
f 17/1/17 18/1/18 19/1/19
f 20/1/20 21/1/21 22/1/22
f 19/1/19 20/1/20 15/1/15
f 13/1/13 15/1/15 20/1/20
f 3/1/3 5/1/5 23/1/23
f 23/1/23 24/1/24 1/1/1
f 20/1/20 22/1/22 13/1/13
f 22/1/22 23/1/23 13/1/13
f 5/1/5 9/1/9 13/1/13
# 22 faces, 1 coords texture

# End of File
