# Blender 4.2.3 LTS
# www.blender.org
mtllib bullet6.mtl
o Circle
v 0.173320 0.391077 0.000000 0.000000 1.000000 0.000000
v -0.076295 0.383562 0.000000 0.000000 1.000000 0.000000
v -0.149659 0.361308 0.000000 0.000000 1.000000 0.000000
v -0.217271 0.325169 0.000000 0.000000 1.000000 0.000000 
v -0.276533 0.276533 0.000000 0.000000 1.000000 0.000000
v -0.325169 0.217271 0.000000 0.000000 1.000000 0.000000
v -0.361308 0.149659 0.000000 0.000000 1.000000 0.000000
v -0.383562 0.076295 0.000000 0.000000 1.000000 0.000000
v -0.391077 0.000000 0.000000 0.000000 1.000000 0.000000
v -0.383562 -0.076295 -0.000000 0.000000 1.000000 0.000000
v -0.361308 -0.149659 -0.000000 0.000000 1.000000 0.000000
v -0.325169 -0.217271 -0.000000 0.000000 1.000000 0.000000
v -0.276533 -0.276533 -0.000000 0.000000 1.000000 0.000000
v -0.217271 -0.325169 -0.000000 0.000000 1.000000 0.000000
v -0.149659 -0.361308 -0.000000 0.000000 1.000000 0.000000
v -0.076295 -0.383562 -0.000000 0.000000 1.000000 0.000000
v 0.202206 -0.391077 -0.000000 0.000000 1.000000 0.000000
v 0.920088 -0.383562 -0.000000 0.000000 1.000000 0.000000
v 0.842937 -0.361308 -0.000000 0.000000 1.000000 0.000000
v 0.711384 -0.325169 -0.000000 0.000000 1.000000 0.000000
v 0.530431 -0.276533 -0.000000 0.000000 1.000000 0.000000
v 0.325169 -0.217271 -0.000000 0.000000 1.000000 0.000000
v 0.361308 -0.149659 -0.000000 0.000000 1.000000 0.000000
v 0.544719 -0.076295 -0.000000 0.000000 1.000000 0.000000
v 0.696667 0.000000 0.000000 0.000000 1.000000 0.000000
v 0.544719 0.076295 0.000000 0.000000 1.000000 0.000000
v 0.361308 0.149659 0.000000 0.000000 1.000000 0.000000
v 0.325169 0.217271 0.000000 0.000000 1.000000 0.000000
v 0.522829 0.276533 0.000000 0.000000 1.000000 0.000000 
v 0.705302 0.325169 0.000000 0.000000 1.000000 0.000000
v 0.824693 0.361308 0.000000 0.000000 1.000000 0.000000
v 0.918568 0.389644 0.000000 0.000000 1.000000 0.000000
vn -0.0000 -0.0000 -1.0000
vn -0.0000 -0.0000 1.0000
vt 0.000000 0.000000
s 0
f 2/1/1 1/1/1 32/1/1
f 3/1/1 2/1/1 32/1/1
f 13/1/1 20/1/1 15/1/1
f 32/1/2 31/1/2 30/1/2
f 4/1/1 32/1/1 30/1/1
f 5/1/1 4/1/1 30/1/1
f 4/1/1 3/1/1 32/1/1
f 30/1/2 29/1/2 28/1/2
f 6/1/1 30/1/1 28/1/1
f 7/1/1 6/1/1 28/1/1
f 7/1/1 28/1/1 27/1/1
f 8/1/1 7/1/1 27/1/1
f 8/1/1 27/1/1 26/1/1
f 9/1/1 8/1/1 26/1/1
f 9/1/1 26/1/1 25/1/1
f 10/1/1 9/1/1 25/1/1
f 10/1/1 25/1/1 24/1/1
f 11/1/1 10/1/1 24/1/1
f 11/1/1 24/1/1 23/1/1
f 12/1/1 11/1/1 23/1/1
f 12/1/1 23/1/1 22/1/1
f 13/1/1 12/1/1 22/1/1
f 21/1/2 20/1/2 22/1/2
f 6/1/1 5/1/1 30/1/1
f 20/1/1 13/1/1 22/1/1
f 14/1/1 13/1/1 15/1/1
f 15/1/1 20/1/1 19/1/1
f 16/1/1 15/1/1 19/1/1
f 16/1/1 19/1/1 18/1/1
f 17/1/1 16/1/1 18/1/1
