####
#
# OBJ File Generated by Meshlab
#
####
# Object Guy.obj
#
# Vertices: 323
# Faces: 246
#
####
mtllib ./Guy.obj.mtl

vn 0.0000000 0.0000000 1.0000000
v 0.0603080 0.0072150 0.0310620 0.431373 0.345098 0.301961
vn 0.0000000 0.0000000 1.0000000
v 0.0601140 -0.0330370 0.0310620 0.431373 0.345098 0.301961
vn 0.0000000 0.0000000 1.0000000
v 0.0202490 -0.0330370 0.0310620 0.431373 0.345098 0.301961
vn 0.0000000 0.0000000 1.0000000
v 0.0202490 0.0070220 0.0310620 0.431373 0.345098 0.301961
vn 0.0000000 0.0000000 -1.0000000
v 0.0303120 -0.0229740 0.0637690 0.792157 0.882353 0.541176
vn 0.0000000 0.0000000 -1.0000000
v 0.0502450 -0.0229740 0.0637690 0.792157 0.882353 0.541176
vn 0.0000000 0.0000000 -1.0000000
v 0.0502450 0.0070220 0.0637690 0.792157 0.882353 0.541176
vn 0.0000000 0.0000000 -1.0000000
v 0.0303120 0.0070220 0.0637690 0.792157 0.882353 0.541176
vn 0.0000000 0.0000000 1.0000000
v 0.0303120 0.0168910 0.0310620 0.431373 0.345098 0.301961
vn 0.0000000 0.0000000 1.0000000
v 0.0303120 0.0068170 0.0310620 0.431373 0.345098 0.301961
vn 0.0000000 0.0000000 1.0000000
v 0.0500510 0.0072610 0.0310620 0.431373 0.345098 0.301961
vn 0.0000000 0.0000000 1.0000000
v 0.0502450 0.0170850 0.0310620 0.431373 0.345098 0.301961
vn 0.0000000 0.0000000 1.0000000
v 0.0602840 -0.0129110 0.0310620 0.431373 0.345098 0.301961
vn 0.0000000 0.0000000 1.0000000
v 0.0703710 -0.0129110 0.0310620 0.431373 0.345098 0.301961
vn 0.0000000 0.0000000 1.0000000
v 0.0701770 -0.0330370 0.0310620 0.431373 0.345098 0.301961
vn 0.0000000 0.0000000 -1.0000000
v 0.0804340 -0.0330370 0.0310620 0.431373 0.345098 0.301961
vn 0.0000000 0.0000000 1.0000000
v 0.0802400 -0.0030180 0.0310620 0.431373 0.345098 0.301961
vn 0.0000000 0.0000000 1.0000000
v 0.0704560 -0.0028480 0.0310620 0.431373 0.345098 0.301961
vn 0.0000000 0.0000000 1.0000000
v 0.0703170 0.0470190 0.0310620 0.431373 0.345098 0.301961
vn 0.0000000 0.0000000 1.0000000
v 0.0601410 0.0468750 0.0310620 0.431373 0.345098 0.301961
vn 0.0000000 0.0000000 -1.0000000
v 0.0802030 -0.0429140 0.0310620 0.431373 0.345098 0.301961
vn 0.0000000 0.0000000 -1.0000000
v 0.0904030 -0.0429610 0.0310620 0.431373 0.345098 0.301961
vn 0.0000000 0.0000000 -1.0000000
v 0.0903090 -0.0329750 0.0310620 0.431373 0.345098 0.301961
vn 0.0000000 0.0000000 -1.0000000
v 0.0600150 0.0568540 0.0310620 0.431373 0.345098 0.301961
vn 0.0000000 0.0000000 -1.0000000
v 0.0401260 0.0568540 0.0310620 0.431373 0.345098 0.301961
vn 0.0000000 0.0000000 -1.0000000
v 0.0401120 0.0670810 0.0310620 0.431373 0.345098 0.301961
vn 0.0000000 0.0000000 -1.0000000
v 0.0002800 0.0669190 0.0310620 0.431373 0.345098 0.301961
vn 0.0000000 0.0000000 -1.0000000
v 0.0002800 0.0570820 0.0310620 0.431373 0.345098 0.301961
vn 0.0000000 0.0000000 -1.0000000
v 0.0301140 0.0570820 0.0310620 0.431373 0.345098 0.301961
vn 0.0000000 0.0000000 -1.0000000
v 0.0301460 0.0468970 0.0310620 0.431373 0.345098 0.301961
vn 0.0000000 0.0000000 1.0000000
v -0.0100250 0.0669350 0.0310620 0.431373 0.345098 0.301961
vn 0.0000000 0.0000000 1.0000000
v -0.0100250 0.0570660 0.0310620 0.431373 0.345098 0.301961
vn 0.0000000 0.0000000 1.0000000
v -0.0299580 0.0570660 0.0310620 0.431373 0.345098 0.301961
vn 0.0000000 0.0000000 1.0000000
v -0.0299580 0.0470030 0.0310620 0.431373 0.345098 0.301961
vn 0.0000000 0.0000000 1.0000000
v -0.0498900 0.0470030 0.0310620 0.431373 0.345098 0.301961
vn 0.0000000 0.0000000 1.0000000
v -0.0498900 0.0371330 0.0310620 0.431373 0.345098 0.301961
vn 0.0000000 0.0000000 1.0000000
v -0.0599530 0.0369400 0.0310620 0.431373 0.345098 0.301961
vn 0.0000000 0.0000000 1.0000000
v -0.0599530 -0.0129880 0.0310620 0.431373 0.345098 0.301961
vn 0.0000000 0.0000000 1.0000000
v -0.0698230 -0.0129880 0.0310620 0.431373 0.345098 0.301961
vn 0.0000000 0.0000000 1.0000000
v -0.0698230 0.0468090 0.0310620 0.431373 0.345098 0.301961
vn 0.0000000 0.0000000 1.0000000
v -0.0599530 0.0469640 0.0310620 0.431373 0.345098 0.301961
vn 0.0000000 0.0000000 1.0000000
v -0.0599530 0.0568720 0.0310620 0.431373 0.345098 0.301961
vn 0.0000000 0.0000000 1.0000000
v -0.0398270 0.0568720 0.0310620 0.431373 0.345098 0.301961
vn 0.0000000 0.0000000 1.0000000
v -0.0400210 0.0667420 0.0310620 0.431373 0.345098 0.301961
vn 0.0000000 0.0000000 1.0000000
v -0.0798670 -0.0132010 0.0310620 0.431373 0.345098 0.301961
vn 0.0000000 0.0000000 1.0000000
v -0.0798670 -0.0329400 0.0310620 0.431373 0.345098 0.301961
vn 0.0000000 0.0000000 1.0000000
v -0.0698810 -0.0329400 0.0310620 0.431373 0.345098 0.301961
vn 0.0000000 0.0000000 1.0000000
v -0.0597210 0.0070990 0.0310620 0.431373 0.345098 0.301961
vn 0.0000000 0.0000000 1.0000000
v -0.0499100 -0.0229540 0.0637690 0.792157 0.882353 0.541176
vn 0.0000000 0.0000000 1.0000000
v -0.0299380 -0.0231870 0.0637690 0.792157 0.882353 0.541176
vn 0.0000000 0.0000000 1.0000000
v -0.0299380 0.0065380 0.0637690 0.792157 0.882353 0.541176
vn 0.0000000 0.0000000 1.0000000
v -0.0499100 0.0067700 0.0637690 0.792157 0.882353 0.541176
vn 0.0000000 0.0000000 1.0000000
v -0.0598950 -0.0329400 0.0310620 0.431373 0.345098 0.301961
vn 0.0000000 0.0000000 1.0000000
v -0.0201850 -0.0327080 0.0310620 0.431373 0.345098 0.301961
vn 0.0000000 0.0000000 1.0000000
v -0.0199530 0.0070020 0.0310620 0.431373 0.345098 0.301961
vn 0.0000000 0.0000000 1.0000000
v -0.0496780 0.0170270 0.0310620 0.431373 0.345098 0.301961
vn 0.0000000 0.0000000 1.0000000
v -0.0299770 0.0168330 0.0310620 0.431373 0.345098 0.301961
vn 0.0000000 0.0000000 1.0000000
v -0.0301710 0.0069650 0.0310620 0.431373 0.345098 0.301961
vn 0.0000000 0.0000000 1.0000000
v -0.0497550 0.0069760 0.0310620 0.431373 0.345098 0.301961
vn 0.0000000 0.0000000 -1.0000000
v -0.0499100 0.0267410 0.0310620 0.431373 0.345098 0.301961
vn 0.0000000 0.0000000 -1.0000000
v 0.0202220 0.0269740 0.0310620 0.431373 0.345098 0.301961
vn 0.0000000 0.0000000 -1.0000000
v 0.0199900 0.0369590 0.0310620 0.431373 0.345098 0.301961
vn 0.0000000 0.0000000 -1.0000000
v 0.0099560 0.0469220 -0.0616650 0.227451 0.313725 0.164706
vn 0.0000000 0.0000000 -1.0000000
v -0.0100410 0.0467610 -0.0616650 0.227451 0.313725 0.164706
vn 0.0000000 0.0000000 -1.0000000
v -0.0100250 0.0768050 -0.0616650 0.227451 0.313725 0.164706
vn 0.0000000 0.0000000 -1.0000000
v -0.0401560 0.0769020 -0.0616650 0.227451 0.313725 0.164706
vn 0.0000000 0.0000000 -1.0000000
v -0.0400660 0.0868870 -0.0616650 0.227451 0.313725 0.164706
vn 0.0000000 0.0000000 -1.0000000
v -0.0500600 0.0867240 -0.0616650 0.227451 0.313725 0.164706
vn 0.0000000 0.0000000 -1.0000000
v -0.0500600 0.1168810 -0.0616650 0.227451 0.313725 0.164706
vn 0.0000000 0.0000000 -1.0000000
v -0.0400610 0.1170420 -0.0616650 0.227451 0.313725 0.164706
vn 0.0000000 0.0000000 -1.0000000
v -0.0402230 0.1068820 -0.0616650 0.227451 0.313725 0.164706
vn 0.0000000 0.0000000 -1.0000000
v -0.0200640 0.1070440 -0.0616650 0.227451 0.313725 0.164706
vn 0.0000000 0.0000000 -1.0000000
v -0.0200640 0.0968840 -0.0616650 0.227451 0.313725 0.164706
vn 0.0000000 0.0000000 -1.0000000
v -0.0400610 0.0968840 -0.0616650 0.227451 0.313725 0.164706
vn 0.0000000 0.0000000 -1.0000000
v -0.0100660 0.0868850 -0.0616650 0.227451 0.313725 0.164706
vn 0.0000000 0.0000000 -1.0000000
v -0.0102270 0.0968840 -0.0616650 0.227451 0.313725 0.164706
vn 0.0000000 0.0000000 -1.0000000
v -0.0000670 0.0967760 -0.0616650 0.227451 0.313725 0.164706
vn 0.0000000 0.0000000 -1.0000000
v -0.0000670 0.0870470 -0.0616650 0.227451 0.313725 0.164706
vn 0.0000000 0.0000000 -1.0000000
v 0.0197680 0.0870470 -0.0616650 0.227451 0.313725 0.164706
vn 0.0000000 0.0000000 1.0000000
v 0.0197680 0.0968840 -0.0616650 0.227451 0.313725 0.164706
vn 0.0000000 0.0000000 -1.0000000
v 0.0297670 0.0968840 -0.0616650 0.227451 0.313725 0.164706
vn 0.0000000 0.0000000 -1.0000000
v 0.0296060 0.1068820 -0.0616650 0.227451 0.313725 0.164706
vn 0.0000000 0.0000000 -1.0000000
v 0.0199300 0.1068820 -0.0616650 0.227451 0.313725 0.164706
vn 0.0000000 0.0000000 1.0000000
v 0.0097700 0.0967230 -0.0616650 0.227451 0.313725 0.164706
vn 0.0000000 0.0000000 1.0000000
v 0.0096090 0.1070440 -0.0616650 0.227451 0.313725 0.164706
vn 0.0000000 0.0000000 -1.0000000
v 0.0197680 0.1170420 -0.0616650 0.227451 0.313725 0.164706
vn 0.0000000 0.0000000 -1.0000000
v 0.0397650 0.1172040 -0.0616650 0.227451 0.313725 0.164706
vn 0.0000000 0.0000000 -1.0000000
v 0.0397650 0.0968840 -0.0616650 0.227451 0.313725 0.164706
vn 0.0000000 0.0000000 1.0000000
v 0.0299280 0.0868850 -0.0616650 0.227451 0.313725 0.164706
vn 0.0000000 0.0000000 -1.0000000
v 0.0199300 0.0770480 -0.0616650 0.227451 0.313725 0.164706
vn 0.0000000 0.0000000 -1.0000000
v -0.0000670 0.0770480 -0.0616650 0.227451 0.313725 0.164706
vn 0.0000000 0.0000000 -1.0000000
v 0.0002140 0.0572110 -0.0616650 0.227451 0.313725 0.164706
vn 0.0000000 0.0000000 -1.0000000
v 0.0099200 0.0571280 -0.0616650 0.227451 0.313725 0.164706
vn 0.0000000 0.0000000 -1.0000000
v -0.0447520 0.0969240 -0.1233640 0.447059 0.701961 0.419608
vn 0.0000000 0.0000000 -1.0000000
v 0.0127670 0.0967900 -0.1233640 0.447059 0.701961 0.419608
vn 0.0000000 0.0000000 -1.0000000
v 0.0225770 0.1109010 -0.1233640 0.447059 0.701961 0.419608
vn 0.0000000 0.0000000 -1.0000000
v 0.0369570 0.1070030 -0.1233640 0.447059 0.701961 0.419608
vn 0.0000000 0.0000000 -1.0000000
v 0.0259370 0.0914140 -0.1233640 0.447059 0.701961 0.419608
vn 0.0000000 0.0000000 -1.0000000
v 0.0178740 0.0856360 -0.1233640 0.447059 0.701961 0.419608
vn 0.0000000 0.0000000 -1.0000000
v -0.0440800 0.0868450 -0.1233640 0.447059 0.701961 0.419608
vn 0.0000000 0.0000000 1.0000000
v -0.0399330 -0.0428330 -0.0002210 0.372549 0.223529 0.184314
vn 0.0000000 0.0000000 1.0000000
v -0.0399330 -0.0530510 -0.0002210 0.372549 0.223529 0.184314
vn 0.0000000 0.0000000 -1.0000000
v 0.0401840 -0.0530510 -0.0002210 0.372549 0.223529 0.184314
vn 0.0000000 0.0000000 -1.0000000
v 0.0401840 -0.0430650 -0.0002210 0.372549 0.223529 0.184314
vn 0.0000000 0.0000000 -1.0000000
v 0.0703730 -0.0428330 -0.0002210 0.372549 0.223529 0.184314
vn 0.0000000 0.0000000 -1.0000000
v 0.0700970 -0.0286670 -0.0002210 0.372549 0.223529 0.184314
vn 0.0000000 0.0000000 -1.0000000
v 0.0903440 -0.0365630 -0.0002210 0.372549 0.223529 0.184314
vn 0.0000000 0.0000000 -1.0000000
v 0.0903440 -0.0827750 -0.0002210 0.372549 0.223529 0.184314
vn 0.0000000 0.0000000 -1.0000000
v 0.0805910 -0.0827750 -0.0002210 0.372549 0.223529 0.184314
vn 0.0000000 0.0000000 -1.0000000
v 0.0803590 -0.0929930 -0.0002210 0.372549 0.223529 0.184314
vn 0.0000000 0.0000000 -1.0000000
v 0.0706050 -0.0929930 -0.0002210 0.372549 0.223529 0.184314
vn 0.0000000 0.0000000 -1.0000000
v 0.0703730 -0.1029790 -0.0002210 0.372549 0.223529 0.184314
vn 0.0000000 0.0000000 -1.0000000
v -0.0696580 -0.1029790 -0.0002210 0.372549 0.223529 0.184314
vn 0.0000000 0.0000000 -1.0000000
v -0.0696580 -0.0927610 -0.0002210 0.372549 0.223529 0.184314
vn 0.0000000 0.0000000 1.0000000
v -0.0796430 -0.0927610 -0.0002210 0.372549 0.223529 0.184314
vn 0.0000000 0.0000000 1.0000000
v -0.0798760 -0.0830080 -0.0002210 0.372549 0.223529 0.184314
vn 0.0000000 0.0000000 1.0000000
v -0.0896290 -0.0830080 -0.0002210 0.372549 0.223529 0.184314
vn 0.0000000 0.0000000 1.0000000
v -0.0896290 -0.0328470 -0.0002210 0.372549 0.223529 0.184314
vn 0.0000000 0.0000000 1.0000000
v -0.0752310 -0.0329220 -0.0002210 0.372549 0.223529 0.184314
vn 0.0000000 0.0000000 1.0000000
v -0.0702670 -0.0293640 -0.0002210 0.372549 0.223529 0.184314
vn 0.0000000 0.0000000 1.0000000
v -0.0698900 -0.0430650 -0.0002210 0.372549 0.223529 0.184314
vn 0.0000000 0.0000000 1.0000000
v -0.0796430 -0.0430650 -0.0002210 0.372549 0.223529 0.184314
vn 0.0000000 0.0000000 1.0000000
v -0.0696810 -0.0829380 -0.0002210 0.372549 0.223529 0.184314
vn 0.0000000 0.0000000 -1.0000000
v 0.0704890 -0.0829380 -0.0002210 0.372549 0.223529 0.184314
vn 0.0000000 0.0000000 -1.0000000
v 0.0802690 -0.0429610 -0.0002210 0.372549 0.223529 0.184314
vn 0.0000000 0.0000000 -1.0000000
v 0.0702920 -0.0527510 -0.0002210 0.372549 0.223529 0.184314
vn 0.0000000 0.0000000 -1.0000000
v 0.0402790 -0.0629420 -0.0002210 0.372549 0.223529 0.184314
vn 0.0000000 0.0000000 -1.0000000
v -0.0397880 -0.0627430 -0.0002210 0.372549 0.223529 0.184314
vn 0.0000000 0.0000000 1.0000000
v -0.0698320 -0.0529540 -0.0002210 0.372549 0.223529 0.184314
vn 0.0000000 0.0000000 -1.0000000
v -0.0819660 -0.0379560 -0.0407780 0.580392 0.368627 0.266667
vn 0.0000000 0.0000000 -1.0000000
v -0.0596720 -0.0474770 -0.0407780 0.580392 0.368627 0.266667
vn 0.0000000 0.0000000 -1.0000000
v -0.0276250 -0.0567660 -0.0407780 0.580392 0.368627 0.266667
vn 0.0000000 0.0000000 -1.0000000
v 0.0580650 -0.0521220 -0.0407780 0.580392 0.368627 0.266667
vn 0.0000000 0.0000000 -1.0000000
v 0.0733920 -0.0405110 -0.0407780 0.580392 0.368627 0.266667
vn 0.0000000 0.0000000 -1.0000000
v 0.0868610 -0.0388850 -0.0407780 0.580392 0.368627 0.266667
vn 0.0000000 0.0000000 -1.0000000
v 0.0798940 -0.0878840 -0.0407780 0.580392 0.368627 0.266667
vn 0.0000000 0.0000000 -1.0000000
v 0.0608520 -0.0981020 -0.0407780 0.580392 0.368627 0.266667
vn 0.0000000 0.0000000 -1.0000000
v -0.0634200 -0.0984600 -0.0407780 0.580392 0.368627 0.266667
vn 0.0000000 0.0000000 -1.0000000
v -0.0852590 -0.0773920 -0.0407780 0.580392 0.368627 0.266667
vn 0.0000000 0.0000000 -1.0000000
v -0.0598600 -0.1018260 0.0321070 0.431373 0.345098 0.301961
vn 0.0000000 0.0000000 1.0000000
v -0.0598600 -0.1128570 0.0321070 0.431373 0.345098 0.301961
vn 0.0000000 0.0000000 1.0000000
v -0.0797920 -0.1128570 0.0321070 0.431373 0.345098 0.301961
vn 0.0000000 0.0000000 1.0000000
v -0.0797920 -0.1231130 0.0321070 0.431373 0.345098 0.301961
vn 0.0000000 0.0000000 -1.0000000
v -0.0894680 -0.1231130 0.0321070 0.431373 0.345098 0.301961
vn 0.0000000 0.0000000 -1.0000000
v -0.0897200 -0.1331180 0.0321070 0.431373 0.345098 0.301961
vn 0.0000000 0.0000000 -1.0000000
v -0.0797920 -0.1329830 0.0321070 0.431373 0.345098 0.301961
vn 0.0000000 0.0000000 1.0000000
v -0.0598600 -0.1231130 0.0321070 0.431373 0.345098 0.301961
vn 0.0000000 0.0000000 -1.0000000
v -0.0499900 -0.1128570 0.0321070 0.431373 0.345098 0.301961
vn 0.0000000 0.0000000 -1.0000000
v -0.0497970 -0.1329830 0.0321070 0.431373 0.345098 0.301961
vn 0.0000000 0.0000000 -1.0000000
v -0.0598600 -0.1327890 0.0321070 0.431373 0.345098 0.301961
vn 0.0000000 0.0000000 -1.0000000
v -0.0596660 -0.1428520 0.0321070 0.431373 0.345098 0.301961
vn 0.0000000 0.0000000 -1.0000000
v -0.0697290 -0.1430460 0.0321070 0.431373 0.345098 0.301961
vn 0.0000000 0.0000000 -1.0000000
v -0.0697290 -0.1531090 0.0321070 0.431373 0.345098 0.301961
vn 0.0000000 0.0000000 -1.0000000
v -0.0497970 -0.1531090 0.0321070 0.431373 0.345098 0.301961
vn 0.0000000 0.0000000 -1.0000000
v -0.0499900 -0.1428520 0.0321070 0.431373 0.345098 0.301961
vn 0.0000000 0.0000000 -1.0000000
v -0.0399270 -0.1428520 0.0321070 0.431373 0.345098 0.301961
vn 0.0000000 0.0000000 -1.0000000
v -0.0397340 -0.1130500 0.0321070 0.431373 0.345098 0.301961
vn 0.0000000 0.0000000 -1.0000000
v -0.0296710 -0.1130500 0.0321070 0.431373 0.345098 0.301961
vn 0.0000000 0.0000000 -1.0000000
v -0.0296710 -0.1012450 0.0321070 0.431373 0.345098 0.301961
vn 0.0000000 0.0000000 -1.0000000
v -0.0703820 -0.1728940 -0.0013580 0.372549 0.223529 0.184314
vn 0.0000000 0.0000000 1.0000000
v -0.0804450 -0.1728940 -0.0013580 0.372549 0.223529 0.184314
vn 0.0000000 0.0000000 1.0000000
v -0.0802520 -0.1827630 -0.0013580 0.372549 0.223529 0.184314
vn 0.0000000 0.0000000 1.0000000
v -0.0903150 -0.1827630 -0.0013580 0.372549 0.223529 0.184314
vn 0.0000000 0.0000000 -1.0000000
v -0.0903150 -0.1728940 -0.0013580 0.372549 0.223529 0.184314
vn 0.0000000 0.0000000 -1.0000000
v -0.1003780 -0.1728940 -0.0013580 0.372549 0.223529 0.184314
vn 0.0000000 0.0000000 -1.0000000
v -0.1003780 -0.1632180 -0.0013580 0.372549 0.223529 0.184314
vn 0.0000000 0.0000000 -1.0000000
v -0.1104410 -0.1630240 -0.0013580 0.372549 0.223529 0.184314
vn 0.0000000 0.0000000 -1.0000000
v -0.1102470 -0.1527680 -0.0013580 0.372549 0.223529 0.184314
vn 0.0000000 0.0000000 -1.0000000
v -0.1205040 -0.1527680 -0.0013580 0.372549 0.223529 0.184314
vn 0.0000000 0.0000000 -1.0000000
v -0.1205040 -0.1430920 -0.0013580 0.372549 0.223529 0.184314
vn 0.0000000 0.0000000 -1.0000000
v -0.1102960 -0.1430760 -0.0013580 0.372549 0.223529 0.184314
vn 0.0000000 0.0000000 -1.0000000
v -0.1102470 -0.1330290 -0.0013580 0.372549 0.223529 0.184314
vn 0.0000000 0.0000000 -1.0000000
v -0.0897340 -0.1328350 -0.0013580 0.372549 0.223529 0.184314
vn 0.0000000 0.0000000 1.0000000
v -0.0799670 -0.1431040 -0.0417360 0.580392 0.368627 0.266667
vn 0.0000000 0.0000000 1.0000000
v -0.0800830 -0.1727050 -0.0417360 0.580392 0.368627 0.266667
vn 0.0000000 0.0000000 1.0000000
v -0.0900760 -0.1728670 -0.0417360 0.580392 0.368627 0.266667
vn 0.0000000 0.0000000 1.0000000
v -0.1102410 -0.1526600 -0.0417360 0.580392 0.368627 0.266667
vn 0.0000000 0.0000000 1.0000000
v -0.1102490 -0.1427440 -0.0417360 0.580392 0.368627 0.266667
vn 0.0000000 0.0000000 1.0000000
v -0.0569760 -0.1087350 -0.0941760 0.521569 0.490196 0.478431
vn 0.0000000 0.0000000 1.0000000
v -0.0637110 -0.1180230 -0.0941760 0.521569 0.490196 0.478431
vn 0.0000000 0.0000000 1.0000000
v -0.0862370 -0.1252220 -0.0941760 0.521569 0.490196 0.478431
vn 0.0000000 0.0000000 1.0000000
v -0.0897430 -0.1305870 -0.0941760 0.521569 0.490196 0.478431
vn 0.0000000 0.0000000 1.0000000
v -0.0897200 -0.1458900 -0.0941760 0.521569 0.490196 0.478431
vn 0.0000000 0.0000000 1.0000000
v -0.0834500 -0.1528570 -0.0941760 0.521569 0.490196 0.478431
vn 0.0000000 0.0000000 1.0000000
v -0.0674260 -0.1530890 -0.0941760 0.521569 0.490196 0.478431
vn 0.0000000 0.0000000 1.0000000
v -0.0462940 -0.1352080 -0.0941760 0.521569 0.490196 0.478431
vn 0.0000000 0.0000000 1.0000000
v -0.0479200 -0.1101280 -0.0941760 0.521569 0.490196 0.478431
vn 0.0000000 0.0000000 -1.0000000
v -0.0703820 -0.1928260 -0.0013580 0.372549 0.223529 0.184314
vn 0.0000000 0.0000000 -1.0000000
v -0.0603190 -0.1923660 -0.0013580 0.372549 0.223529 0.184314
vn 0.0000000 0.0000000 1.0000000
v -0.0603190 -0.1628310 -0.0013580 0.372549 0.223529 0.184314
vn 0.0000000 0.0000000 -1.0000000
v -0.0703820 -0.1626370 -0.0013580 0.372549 0.223529 0.184314
vn 0.0000000 0.0000000 -1.0000000
v -0.0699950 -0.1529610 -0.0013580 0.372549 0.223529 0.184314
vn 0.0000000 0.0000000 -1.0000000
v -0.0800580 -0.1527680 -0.0013580 0.372549 0.223529 0.184314
vn 0.0000000 0.0000000 -1.0000000
v -0.0899280 -0.1525740 -0.0013580 0.372549 0.223529 0.184314
vn 0.0000000 0.0000000 -1.0000000
v -0.0895410 -0.1428980 -0.0013580 0.372549 0.223529 0.184314
vn 0.0000000 0.0000000 1.0000000
v -0.0898440 -0.1525510 -0.0417360 0.580392 0.368627 0.266667
vn 0.0000000 0.0000000 1.0000000
v -0.0605130 -0.1531550 -0.0013580 0.372549 0.223529 0.184314
vn 0.0000000 0.0000000 1.0000000
v -0.0504500 -0.1531550 -0.0013580 0.372549 0.223529 0.184314
vn 0.0000000 0.0000000 1.0000000
v -0.0504500 -0.1630240 -0.0013580 0.372549 0.223529 0.184314
vn 0.0000000 0.0000000 1.0000000
v -0.0101970 -0.1628310 -0.0013580 0.372549 0.223529 0.184314
vn 0.0000000 0.0000000 1.0000000
v -0.0105840 -0.1728940 -0.0013580 0.372549 0.223529 0.184314
vn 0.0000000 0.0000000 1.0000000
v -0.0502560 -0.1728940 -0.0013580 0.372549 0.223529 0.184314
vn 0.0000000 0.0000000 -1.0000000
v -0.0604160 -0.2027540 -0.0013580 0.372549 0.223529 0.184314
vn 0.0000000 0.0000000 -1.0000000
v 0.0598600 -0.1018260 0.0321070 0.431373 0.345098 0.301961
vn 0.0000000 0.0000000 1.0000000
v 0.0598600 -0.1128570 0.0321070 0.431373 0.345098 0.301961
vn 0.0000000 0.0000000 1.0000000
v 0.0797920 -0.1128570 0.0321070 0.431373 0.345098 0.301961
vn 0.0000000 0.0000000 1.0000000
v 0.0797920 -0.1231130 0.0321070 0.431373 0.345098 0.301961
vn 0.0000000 0.0000000 -1.0000000
v 0.0894680 -0.1231130 0.0321070 0.431373 0.345098 0.301961
vn 0.0000000 0.0000000 -1.0000000
v 0.0897200 -0.1331180 0.0321070 0.431373 0.345098 0.301961
vn 0.0000000 0.0000000 -1.0000000
v 0.0797920 -0.1329830 0.0321070 0.431373 0.345098 0.301961
vn 0.0000000 0.0000000 1.0000000
v 0.0598600 -0.1231130 0.0321070 0.431373 0.345098 0.301961
vn 0.0000000 0.0000000 -1.0000000
v 0.0499900 -0.1128570 0.0321070 0.431373 0.345098 0.301961
vn 0.0000000 0.0000000 -1.0000000
v 0.0497970 -0.1329830 0.0321070 0.431373 0.345098 0.301961
vn 0.0000000 0.0000000 -1.0000000
v 0.0598600 -0.1327890 0.0321070 0.431373 0.345098 0.301961
vn 0.0000000 0.0000000 -1.0000000
v 0.0596660 -0.1428520 0.0321070 0.431373 0.345098 0.301961
vn 0.0000000 0.0000000 -1.0000000
v 0.0697290 -0.1430460 0.0321070 0.431373 0.345098 0.301961
vn 0.0000000 0.0000000 -1.0000000
v 0.0697290 -0.1531090 0.0321070 0.431373 0.345098 0.301961
vn 0.0000000 0.0000000 -1.0000000
v 0.0497970 -0.1531090 0.0321070 0.431373 0.345098 0.301961
vn 0.0000000 0.0000000 -1.0000000
v 0.0499900 -0.1428520 0.0321070 0.431373 0.345098 0.301961
vn 0.0000000 0.0000000 -1.0000000
v 0.0399270 -0.1428520 0.0321070 0.431373 0.345098 0.301961
vn 0.0000000 0.0000000 -1.0000000
v 0.0397340 -0.1130500 0.0321070 0.431373 0.345098 0.301961
vn 0.0000000 0.0000000 -1.0000000
v 0.0296710 -0.1130500 0.0321070 0.431373 0.345098 0.301961
vn 0.0000000 0.0000000 -1.0000000
v 0.0296710 -0.1012450 0.0321070 0.431373 0.345098 0.301961
vn 0.0000000 0.0000000 -1.0000000
v 0.0703820 -0.1728940 -0.0013580 0.372549 0.223529 0.184314
vn 0.0000000 0.0000000 1.0000000
v 0.0804450 -0.1728940 -0.0013580 0.372549 0.223529 0.184314
vn 0.0000000 0.0000000 1.0000000
v 0.0802520 -0.1827630 -0.0013580 0.372549 0.223529 0.184314
vn 0.0000000 0.0000000 1.0000000
v 0.0903150 -0.1827630 -0.0013580 0.372549 0.223529 0.184314
vn 0.0000000 0.0000000 -1.0000000
v 0.0903150 -0.1728940 -0.0013580 0.372549 0.223529 0.184314
vn 0.0000000 0.0000000 -1.0000000
v 0.1003780 -0.1728940 -0.0013580 0.372549 0.223529 0.184314
vn 0.0000000 0.0000000 -1.0000000
v 0.1003780 -0.1632180 -0.0013580 0.372549 0.223529 0.184314
vn 0.0000000 0.0000000 -1.0000000
v 0.1104410 -0.1630240 -0.0013580 0.372549 0.223529 0.184314
vn 0.0000000 0.0000000 -1.0000000
v 0.1102470 -0.1527680 -0.0013580 0.372549 0.223529 0.184314
vn 0.0000000 0.0000000 -1.0000000
v 0.1205040 -0.1527680 -0.0013580 0.372549 0.223529 0.184314
vn 0.0000000 0.0000000 -1.0000000
v 0.1205040 -0.1430920 -0.0013580 0.372549 0.223529 0.184314
vn 0.0000000 0.0000000 -1.0000000
v 0.1102960 -0.1430760 -0.0013580 0.372549 0.223529 0.184314
vn 0.0000000 0.0000000 -1.0000000
v 0.1102470 -0.1330290 -0.0013580 0.372549 0.223529 0.184314
vn 0.0000000 0.0000000 -1.0000000
v 0.0897340 -0.1328350 -0.0013580 0.372549 0.223529 0.184314
vn 0.0000000 0.0000000 1.0000000
v 0.0799670 -0.1431040 -0.0417360 0.580392 0.368627 0.266667
vn 0.0000000 0.0000000 1.0000000
v 0.0800830 -0.1727050 -0.0417360 0.580392 0.368627 0.266667
vn 0.0000000 0.0000000 1.0000000
v 0.0900760 -0.1728670 -0.0417360 0.580392 0.368627 0.266667
vn 0.0000000 0.0000000 1.0000000
v 0.1102410 -0.1526600 -0.0417360 0.580392 0.368627 0.266667
vn 0.0000000 0.0000000 1.0000000
v 0.1102490 -0.1427440 -0.0417360 0.580392 0.368627 0.266667
vn 0.0000000 0.0000000 1.0000000
v 0.0569760 -0.1087350 -0.0941760 0.521569 0.490196 0.478431
vn 0.0000000 0.0000000 1.0000000
v 0.0637110 -0.1180230 -0.0941760 0.521569 0.490196 0.478431
vn 0.0000000 0.0000000 1.0000000
v 0.0862370 -0.1252220 -0.0941760 0.521569 0.490196 0.478431
vn 0.0000000 0.0000000 1.0000000
v 0.0897430 -0.1305870 -0.0941760 0.521569 0.490196 0.478431
vn 0.0000000 0.0000000 1.0000000
v 0.0897200 -0.1458900 -0.0941760 0.521569 0.490196 0.478431
vn 0.0000000 0.0000000 1.0000000
v 0.0834500 -0.1528570 -0.0941760 0.521569 0.490196 0.478431
vn 0.0000000 0.0000000 1.0000000
v 0.0674260 -0.1530890 -0.0941760 0.521569 0.490196 0.478431
vn 0.0000000 0.0000000 1.0000000
v 0.0462940 -0.1352080 -0.0941760 0.521569 0.490196 0.478431
vn 0.0000000 0.0000000 1.0000000
v 0.0479200 -0.1101280 -0.0941760 0.521569 0.490196 0.478431
vn 0.0000000 0.0000000 -1.0000000
v 0.0703820 -0.1928260 -0.0013580 0.372549 0.223529 0.184314
vn 0.0000000 0.0000000 -1.0000000
v 0.0603190 -0.1923660 -0.0013580 0.372549 0.223529 0.184314
vn 0.0000000 0.0000000 1.0000000
v 0.0603190 -0.1628310 -0.0013580 0.372549 0.223529 0.184314
vn 0.0000000 0.0000000 -1.0000000
v 0.0703820 -0.1626370 -0.0013580 0.372549 0.223529 0.184314
vn 0.0000000 0.0000000 -1.0000000
v 0.0699950 -0.1529610 -0.0013580 0.372549 0.223529 0.184314
vn 0.0000000 0.0000000 -1.0000000
v 0.0800580 -0.1527680 -0.0013580 0.372549 0.223529 0.184314
vn 0.0000000 0.0000000 -1.0000000
v 0.0899280 -0.1525740 -0.0013580 0.372549 0.223529 0.184314
vn 0.0000000 0.0000000 -1.0000000
v 0.0895410 -0.1428980 -0.0013580 0.372549 0.223529 0.184314
vn 0.0000000 0.0000000 1.0000000
v 0.0898440 -0.1525510 -0.0417360 0.580392 0.368627 0.266667
vn 0.0000000 0.0000000 1.0000000
v 0.0605130 -0.1531550 -0.0013580 0.372549 0.223529 0.184314
vn 0.0000000 0.0000000 1.0000000
v 0.0504500 -0.1531550 -0.0013580 0.372549 0.223529 0.184314
vn 0.0000000 0.0000000 1.0000000
v 0.0504500 -0.1630240 -0.0013580 0.372549 0.223529 0.184314
vn 0.0000000 0.0000000 1.0000000
v 0.0299410 -0.1628310 -0.0013580 0.372549 0.223529 0.184314
vn 0.0000000 0.0000000 1.0000000
v 0.0303280 -0.1728940 -0.0013580 0.372549 0.223529 0.184314
vn 0.0000000 0.0000000 1.0000000
v 0.0502560 -0.1728940 -0.0013580 0.372549 0.223529 0.184314
vn 0.0000000 0.0000000 -1.0000000
v 0.0604160 -0.2027540 -0.0013580 0.372549 0.223529 0.184314
vn 0.0000000 0.0000000 -1.0000000
v -0.0501380 -0.2029510 0.0312450 0.431373 0.345098 0.301961
vn 0.0000000 0.0000000 -1.0000000
v -0.0503470 -0.2232710 0.0312450 0.431373 0.345098 0.301961
vn 0.0000000 0.0000000 1.0000000
v -0.0403150 -0.2235490 0.0312450 0.431373 0.345098 0.301961
vn 0.0000000 0.0000000 1.0000000
v -0.0403150 -0.2330240 0.0312450 0.431373 0.345098 0.301961
vn 0.0000000 0.0000000 1.0000000
v -0.0104970 -0.2333030 0.0312450 0.431373 0.345098 0.301961
vn 0.0000000 0.0000000 1.0000000
v -0.0102190 -0.2029280 0.0312450 0.431373 0.345098 0.301961
vn 0.0000000 0.0000000 1.0000000
v -0.0202510 -0.2026490 0.0312450 0.431373 0.345098 0.301961
vn 0.0000000 0.0000000 1.0000000
v -0.0202510 -0.2229920 0.0312450 0.431373 0.345098 0.301961
vn 0.0000000 0.0000000 -1.0000000
v -0.0403150 -0.2026490 0.0312450 0.431373 0.345098 0.301961
vn 0.0000000 0.0000000 -1.0000000
v -0.0405930 -0.2026490 -0.0941190 0.521569 0.490196 0.478431
vn 0.0000000 0.0000000 -1.0000000
v -0.0403150 -0.2232710 -0.0941190 0.521569 0.490196 0.478431
vn 0.0000000 0.0000000 -1.0000000
v -0.0202510 -0.2235490 -0.0941190 0.521569 0.490196 0.478431
vn 0.0000000 0.0000000 -1.0000000
v -0.0202510 -0.2029280 -0.0941190 0.521569 0.490196 0.478431
vn 0.0000000 0.0000000 -1.0000000
v 0.0501380 -0.2029510 0.0312450 0.431373 0.345098 0.301961
vn 0.0000000 0.0000000 -1.0000000
v 0.0503470 -0.2232710 0.0312450 0.431373 0.345098 0.301961
vn 0.0000000 0.0000000 1.0000000
v 0.0403150 -0.2235490 0.0312450 0.431373 0.345098 0.301961
vn 0.0000000 0.0000000 1.0000000
v 0.0403150 -0.2330240 0.0312450 0.431373 0.345098 0.301961
vn 0.0000000 0.0000000 1.0000000
v 0.0104970 -0.2333030 0.0312450 0.431373 0.345098 0.301961
vn 0.0000000 0.0000000 1.0000000
v 0.0102190 -0.2029280 0.0312450 0.431373 0.345098 0.301961
vn 0.0000000 0.0000000 1.0000000
v 0.0202510 -0.2026490 0.0312450 0.431373 0.345098 0.301961
vn 0.0000000 0.0000000 1.0000000
v 0.0202510 -0.2229920 0.0312450 0.431373 0.345098 0.301961
vn 0.0000000 0.0000000 -1.0000000
v 0.0403150 -0.2026490 0.0312450 0.431373 0.345098 0.301961
vn 0.0000000 0.0000000 -1.0000000
v 0.0405930 -0.2026490 -0.0941190 0.521569 0.490196 0.478431
vn 0.0000000 0.0000000 -1.0000000
v 0.0403150 -0.2232710 -0.0941190 0.521569 0.490196 0.478431
vn 0.0000000 0.0000000 -1.0000000
v 0.0202510 -0.2235490 -0.0941190 0.521569 0.490196 0.478431
vn 0.0000000 0.0000000 -1.0000000
v 0.0202510 -0.2029280 -0.0941190 0.521569 0.490196 0.478431
vn 0.0000000 0.0000000 -1.0000000
v -0.0607140 -0.1632060 -0.0423570 0.580392 0.368627 0.266667
vn 0.0000000 0.0000000 -1.0000000
v 0.0600630 -0.1632060 -0.0423570 0.580392 0.368627 0.266667
vn 0.0000000 0.0000000 -1.0000000
v 0.0603890 -0.1928300 -0.0423570 0.580392 0.368627 0.266667
vn 0.0000000 0.0000000 -1.0000000
v -0.0603890 -0.1925050 -0.0423570 0.580392 0.368627 0.266667
vn 0.0000104 -0.0000015 1.0000000
v -0.0328750 -0.1000190 -0.0951030 0.521569 0.490196 0.478431
vn 0.0000000 0.0000000 1.0000000
v -0.0438020 -0.1139600 -0.0951030 0.521569 0.490196 0.478431
vn 0.0000084 -0.0000026 1.0000000
v -0.0449320 -0.1397700 -0.0951030 0.521569 0.490196 0.478431
vn 0.0000000 0.0000000 1.0000000
v -0.0517140 -0.1422190 -0.0951030 0.521569 0.490196 0.478431
vn 0.0000076 0.0000044 1.0000000
v -0.0528450 -0.1652040 -0.0951030 0.521569 0.490196 0.478431
vn 0.0000016 0.0000391 1.0000000
v 0.0530330 -0.1657690 -0.0951030 0.521569 0.490196 0.478431
vn 0.0000060 0.0000410 1.0000000
v 0.0519030 -0.1412780 -0.0951040 0.521569 0.490196 0.478431
vn 0.0000062 0.0000237 1.0000000
v 0.0415410 -0.1397700 -0.0951040 0.521569 0.490196 0.478431
vn 0.0000000 0.0000000 1.0000000
v 0.0409760 -0.1086850 -0.0951040 0.521569 0.490196 0.478431
vn 0.0000117 0.0000024 1.0000000
v 0.0332520 -0.0998310 -0.0951040 0.521569 0.490196 0.478431
vn -0.0000012 0.0001281 -1.0000000
v -0.0343450 0.0594500 -0.0941310 0.521569 0.490196 0.478431
vn 0.0000126 0.0000148 -1.0000000
v 0.0327170 0.0601010 -0.0941310 0.521569 0.490196 0.478431
vn 0.0000101 0.0000056 -1.0000000
v 0.0389030 0.0503350 -0.0941310 0.521569 0.490196 0.478431
vn 0.0000000 0.0000000 -1.0000000
v 0.0600630 0.0474050 -0.0941310 0.521569 0.490196 0.478431
vn 0.0000035 -0.0000014 -1.0000000
v 0.0642950 0.0005270 -0.0941310 0.521569 0.490196 0.478431
vn 0.0000000 0.0000000 -1.0000000
v 0.0750380 -0.0170530 -0.0941310 0.521569 0.490196 0.478431
vn 0.0000000 0.0000000 -1.0000000
v 0.0688530 -0.0479800 -0.0941310 0.521569 0.490196 0.478431
vn 0.0000000 0.0000000 -1.0000000
v 0.0431350 -0.0499330 -0.0941310 0.521569 0.490196 0.478431
vn 0.0000000 0.0000000 -1.0000000
v 0.0362980 -0.0580720 -0.0941310 0.521569 0.490196 0.478431
vn 0.0000000 0.0000000 -1.0000000
v -0.0349960 -0.0587230 -0.0941310 0.521569 0.490196 0.478431
vn -0.0000012 -0.0000041 -1.0000000
v -0.0437860 -0.0489560 -0.0941310 0.521569 0.490196 0.478431
vn 0.0000000 0.0000000 -1.0000000
v -0.0750380 -0.0417940 -0.0941310 0.521569 0.490196 0.478431
vn -0.0000110 -0.0000091 -1.0000000
v -0.0668990 -0.0001250 -0.0941310 0.521569 0.490196 0.478431
vn 0.0000085 -0.0000208 -1.0000000
v -0.0620160 0.0412200 -0.0941320 0.521569 0.490196 0.478431
vn 0.0000000 0.0000000 -1.0000000
v -0.0545290 0.0496840 -0.0941320 0.521569 0.490196 0.478431
vn 0.0000024 0.0000280 -1.0000000
v -0.0366240 0.0516370 -0.0941320 0.521569 0.490196 0.478431
# 323 vertices, 0 vertices normals


usemtl material_0
vt 0.0000000 0.0000000

# Face grey
f 291/1/291 293/1/293 290/1/290
f 291/1/291 292/1/292 293/1/293
f 278/1/278 280/1/280 279/1/279
f 278/1/278 277/1/277 280/1/280
f 308/1/308 309/1/309 323/1/323
f 309/1/309 310/1/310 323/1/323
f 310/1/310 311/1/311 312/1/312
f 312/1/312 313/1/313 315/1/315
f 313/1/313 314/1/314 315/1/315
f 315/1/315 316/1/316 317/1/317
f 310/1/310 312/1/312 323/1/323
f 321/1/321 322/1/322 323/1/323
f 312/1/312 315/1/315 318/1/318
f 315/1/315 317/1/317 318/1/318
f 318/1/318 319/1/319 320/1/320
f 321/1/321 323/1/323 320/1/320
f 323/1/323 312/1/312 318/1/318
f 244/1/244 243/1/243 251/1/251
f 251/1/251 250/1/250 244/1/244
f 250/1/250 249/1/249 244/1/244
f 249/1/249 248/1/248 247/1/247
f 247/1/247 246/1/246 249/1/249
f 246/1/246 245/1/245 249/1/249
f 318/1/318 320/1/320 323/1/323
f 187/1/187 179/1/179 180/1/180
f 245/1/245 244/1/244 249/1/249
f 300/1/300 302/1/302 305/1/305
f 298/1/298 299/1/299 300/1/300
f 300/1/300 301/1/301 302/1/302
f 302/1/302 303/1/303 305/1/305
f 303/1/303 304/1/304 305/1/305
f 305/1/305 306/1/306 307/1/307
f 307/1/307 298/1/298 305/1/305
f 298/1/298 300/1/300 305/1/305
f 180/1/180 181/1/181 185/1/185
f 181/1/181 182/1/182 185/1/185
f 182/1/182 183/1/183 185/1/185
f 183/1/183 184/1/184 185/1/185
f 185/1/185 186/1/186 180/1/180
f 186/1/186 187/1/187 180/1/180

# Light green
f 100/1/100 94/1/94 95/1/95
f 95/1/95 96/1/96 98/1/98
f 96/1/96 97/1/97 98/1/98
f 98/1/98 99/1/99 95/1/95
f 99/1/99 100/1/100 95/1/95

# Dark green
f 82/1/82 86/1/86 87/1/87
f 87/1/87 88/1/88 82/1/82
f 88/1/88 81/1/81 82/1/82
f 82/1/82 83/1/83 86/1/86
f 85/1/85 80/1/80 83/1/83
f 85/1/85 84/1/84 80/1/80
f 81/1/81 80/1/80 79/1/79
f 81/1/81 79/1/79 89/1/89
f 72/1/72 73/1/73 74/1/74
f 75/1/75 78/1/78 91/1/91
f 67/1/67 68/1/68 74/1/74
f 68/1/68 69/1/69 71/1/71
f 74/1/74 68/1/68 71/1/71
f 69/1/69 70/1/70 71/1/71
f 71/1/71 72/1/72 74/1/74
f 65/1/65 66/1/66 67/1/67
f 93/1/93 63/1/63 92/1/92
f 63/1/63 64/1/64 92/1/92
f 79/1/79 90/1/90 91/1/91
f 91/1/91 92/1/92 65/1/65
f 92/1/92 64/1/64 65/1/65
f 65/1/65 67/1/67 75/1/75
f 78/1/78 79/1/79 91/1/91
f 76/1/76 77/1/77 75/1/75
f 77/1/77 78/1/78 75/1/75
f 91/1/91 65/1/65 75/1/75

# Chin brown
f 132/1/132 133/1/133 137/1/137
f 178/1/178 177/1/177 196/1/196
f 133/1/133 134/1/134 136/1/136
f 134/1/134 135/1/135 136/1/136
f 136/1/136 137/1/137 133/1/133
f 137/1/137 138/1/138 132/1/132
f 138/1/138 139/1/139 131/1/131
f 132/1/132 138/1/138 131/1/131
f 139/1/139 130/1/130 131/1/131
f 260/1/260 242/1/242 238/1/238
f 238/1/238 239/1/239 260/1/260
f 239/1/239 240/1/240 260/1/260
f 260/1/260 241/1/241 242/1/242
f 295/1/295 297/1/297 294/1/294
f 295/1/295 296/1/296 297/1/297
f 176/1/176 175/1/175 196/1/196
f 175/1/175 174/1/174 196/1/196
f 174/1/174 178/1/178 196/1/196

# Outline brown
f 227/1/227 228/1/228 225/1/225
f 257/1/257 225/1/225 255/1/255
f 225/1/225 224/1/224 255/1/255
f 224/1/224 252/1/252 253/1/253
f 253/1/253 254/1/254 224/1/224
f 254/1/254 255/1/255 224/1/224
f 262/1/262 263/1/263 254/1/254
f 265/1/265 263/1/263 264/1/264
f 265/1/265 266/1/266 263/1/263
f 122/1/122 119/1/119 118/1/118
f 118/1/118 117/1/117 122/1/122
f 117/1/117 116/1/116 122/1/122
f 122/1/122 121/1/121 119/1/119
f 121/1/121 120/1/120 119/1/119
f 110/1/110 124/1/124 109/1/109
f 110/1/110 111/1/111 124/1/124
f 112/1/112 114/1/114 111/1/111
f 112/1/112 113/1/113 114/1/114
f 115/1/115 114/1/114 123/1/123
f 115/1/115 123/1/123 116/1/116
f 161/1/161 163/1/163 162/1/162
f 160/1/160 161/1/161 191/1/191
f 161/1/161 193/1/193 191/1/191
f 193/1/193 192/1/192 191/1/191
f 161/1/161 164/1/164 163/1/163
f 194/1/194 164/1/164 166/1/166
f 164/1/164 165/1/165 166/1/166
f 166/1/166 167/1/167 168/1/168
f 191/1/191 190/1/190 160/1/160
f 190/1/190 189/1/189 160/1/160
f 190/1/190 199/1/199 198/1/198
f 166/1/166 168/1/168 194/1/194
f 169/1/169 171/1/171 168/1/168
f 169/1/169 170/1/170 171/1/171
f 172/1/172 195/1/195 171/1/171
f 172/1/172 173/1/173 195/1/195
f 189/1/189 188/1/188 160/1/160
f 189/1/189 267/1/267 203/1/203
f 189/1/189 253/1/253 267/1/267
f 190/1/190 198/1/198 197/1/197
f 199/1/199 201/1/201 200/1/200
f 199/1/199 202/1/202 201/1/201
f 232/1/232 231/1/231 230/1/230
f 229/1/229 228/1/228 230/1/230
f 228/1/228 258/1/258 230/1/230
f 258/1/258 232/1/232 230/1/230
f 233/1/233 232/1/232 235/1/235
f 236/1/236 235/1/235 259/1/259
f 262/1/262 254/1/254 261/1/261
f 233/1/233 235/1/235 234/1/234
f 236/1/236 259/1/259 237/1/237
f 227/1/227 225/1/225 226/1/226
f 255/1/255 256/1/256 257/1/257
f 128/1/128 103/1/103 127/1/127
f 128/1/128 102/1/102 103/1/103
f 104/1/104 126/1/126 103/1/103
f 101/1/101 129/1/129 102/1/102
f 104/1/104 105/1/105 126/1/126
f 105/1/105 106/1/106 125/1/125
f 106/1/106 107/1/107 125/1/125
f 107/1/107 108/1/108 125/1/125
f 108/1/108 109/1/109 125/1/125
f 101/1/101 121/1/121 129/1/129

# Eyebrow brown
f 38/1/38 59/1/59 48/1/48
f 54/1/54 55/1/55 58/1/58
f 41/1/41 40/1/40 37/1/37
f 40/1/40 39/1/39 48/1/48
f 37/1/37 40/1/40 48/1/48
f 39/1/39 38/1/38 48/1/48
f 38/1/38 53/1/53 54/1/54
f 58/1/58 57/1/57 56/1/56
f 58/1/58 56/1/56 59/1/59
f 38/1/38 54/1/54 58/1/58
f 38/1/38 58/1/58 59/1/59
f 32/1/32 31/1/31 33/1/33
f 31/1/31 44/1/44 33/1/33
f 43/1/43 42/1/42 35/1/35
f 42/1/42 41/1/41 35/1/35
f 35/1/35 34/1/34 43/1/43
f 34/1/34 33/1/33 43/1/43
f 37/1/37 36/1/36 41/1/41
f 36/1/36 35/1/35 41/1/41
f 33/1/33 44/1/44 43/1/43
f 45/1/45 47/1/47 39/1/39
f 45/1/45 46/1/46 47/1/47
f 60/1/60 62/1/62 61/1/61
f 60/1/60 36/1/36 62/1/62
f 12/1/12 9/1/9 11/1/11
f 9/1/9 10/1/10 11/1/11
f 10/1/10 13/1/13 11/1/11
f 1/1/1 13/1/13 18/1/18
f 19/1/19 20/1/20 1/1/1
f 1/1/1 11/1/11 13/1/13
f 18/1/18 19/1/19 1/1/1
f 205/1/205 207/1/207 206/1/206
f 204/1/204 205/1/205 212/1/212
f 205/1/205 211/1/211 207/1/207
f 208/1/208 210/1/210 207/1/207
f 221/1/221 223/1/223 212/1/212
f 223/1/223 204/1/204 212/1/212
f 208/1/208 209/1/209 210/1/210
f 213/1/213 215/1/215 219/1/219
f 217/1/217 218/1/218 215/1/215
f 218/1/218 219/1/219 215/1/215
f 215/1/215 216/1/216 217/1/217
f 213/1/213 214/1/214 215/1/215
f 221/1/221 212/1/212 213/1/213
f 221/1/221 222/1/222 223/1/223
f 219/1/219 220/1/220 213/1/213
f 220/1/220 221/1/221 213/1/213
f 4/1/4 3/1/3 10/1/10
f 3/1/3 13/1/13 10/1/10
f 3/1/3 2/1/2 13/1/13
f 16/1/16 23/1/23 22/1/22
f 14/1/14 17/1/17 18/1/18
f 14/1/14 16/1/16 17/1/17
f 13/1/13 14/1/14 18/1/18
f 14/1/14 15/1/15 16/1/16
f 16/1/16 22/1/22 21/1/21
f 25/1/25 24/1/24 20/1/20
f 20/1/20 30/1/30 25/1/25
f 30/1/30 29/1/29 25/1/25
f 29/1/29 28/1/28 27/1/27
f 27/1/27 26/1/26 29/1/29
f 26/1/26 25/1/25 29/1/29
f 143/1/143 147/1/147 141/1/141
f 144/1/144 143/1/143 146/1/146
f 144/1/144 146/1/146 145/1/145
f 151/1/151 150/1/150 149/1/149
f 151/1/151 149/1/149 155/1/155
f 157/1/157 156/1/156 149/1/149
f 156/1/156 155/1/155 149/1/149
f 141/1/141 140/1/140 148/1/148
f 140/1/140 159/1/159 148/1/148
f 148/1/148 159/1/159 157/1/157
f 159/1/159 158/1/158 157/1/157
f 155/1/155 154/1/154 151/1/151
f 154/1/154 153/1/153 151/1/151
f 153/1/153 152/1/152 151/1/151
f 281/1/281 283/1/283 289/1/289
f 281/1/281 282/1/282 283/1/283
f 285/1/285 284/1/284 288/1/288
f 284/1/284 283/1/283 288/1/288
f 288/1/288 287/1/287 286/1/286
f 288/1/288 286/1/286 285/1/285
f 268/1/268 270/1/270 269/1/269
f 273/1/273 274/1/274 275/1/275
f 149/1/149 148/1/148 157/1/157
f 143/1/143 141/1/141 142/1/142
f 268/1/268 276/1/276 270/1/270
f 270/1/270 271/1/271 275/1/275
f 271/1/271 272/1/272 275/1/275
f 272/1/272 273/1/273 275/1/275

# Eyes
f 8/1/8 6/1/6 5/1/5
f 8/1/8 7/1/7 6/1/6
f 51/1/51 49/1/49 50/1/50
f 51/1/51 52/1/52 49/1/49



# 246 faces, 1 coords texture

# End of File
